<svg width="17" height="13" viewBox="0 0 17 13" fill="none" xmlns="http://www.w3.org/2000/svg">
<path fill-rule="evenodd" clip-rule="evenodd" d="M15.8907 5.48625C16.2812 5.87678 16.2812 6.50994 15.8907 6.90047L10.8907 11.9005C10.5002 12.291 9.86701 12.291 9.47649 11.9005C9.08596 11.5099 9.08596 10.8768 9.47649 10.4863L13.7694 6.19336L9.47649 1.90047C9.08596 1.50994 9.08596 0.876777 9.47649 0.486253C9.86701 0.0957283 10.5002 0.0957283 10.8907 0.486253L15.8907 5.48625ZM10.1836 7.19336L1.18359 7.19336C0.631308 7.19336 0.183594 6.74564 0.183594 6.19336C0.183594 5.64107 0.631309 5.19336 1.18359 5.19336L10.1836 5.19336C10.7359 5.19336 11.1836 5.64107 11.1836 6.19336C11.1836 6.74564 10.7359 7.19336 10.1836 7.19336Z" fill="#4949DD"/>
</svg>
