<svg width="297" height="420" viewBox="0 0 297 420" fill="none" xmlns="http://www.w3.org/2000/svg" xmlns:xlink="http://www.w3.org/1999/xlink">
<g filter="url(#filter0_i_958_20975)">
<g clip-path="url(#clip0_958_20975)">
<g filter="url(#filter1_f_958_20975)">
<rect x="11.9723" y="-186.852" width="589" height="598" rx="8" transform="rotate(25.581 11.9723 -186.852)" fill="black"/>
</g>
<rect width="297" height="420" fill="url(#pattern0)"/>
<g style="mix-blend-mode:color-dodge" opacity="0.6">
<rect x="-121" y="-13" width="550" height="551" fill="url(#pattern1)" fill-opacity="0.7"/>
</g>
<g opacity="0.2" filter="url(#filter2_f_958_20975)">
<path d="M-38 286L334 123.753V-42H-38V286Z" fill="url(#paint0_linear_958_20975)"/>
</g>
<g style="mix-blend-mode:color-dodge" opacity="0.5" filter="url(#filter3_f_958_20975)">
<rect width="549.019" height="549.019" rx="79" transform="matrix(0.793353 0.608761 0 1 -78 -226)" fill="url(#pattern2)" fill-opacity="0.5"/>
<rect width="549.019" height="549.019" rx="79" transform="matrix(0.793353 0.608761 0 1 -78 -226)" fill="url(#paint1_radial_958_20975)"/>
</g>
<g filter="url(#filter4_ii_958_20975)">
<path d="M21.0909 399C24.6364 399 26.7386 396.807 26.7386 393.17C26.7386 389.545 24.6364 387.364 21.1705 387.364H17.1477V399H21.0909ZM19.2557 397.176V389.188H21.0511C23.4148 389.188 24.6477 390.506 24.6477 393.17C24.6477 395.847 23.4148 397.176 20.9886 397.176H19.2557ZM30.081 387.364H27.6662L31.2969 393.182L27.6207 399H30.0526L32.6435 394.767H32.7344L35.3253 399H37.7685L34.1264 393.182L37.7116 387.364H35.3082L32.7344 391.625H32.6435L30.081 387.364ZM42.0611 399.153C43.5611 399.153 44.2372 398.261 44.5611 397.625H44.6861V399H46.7088V387.364H44.6463V391.716H44.5611C44.2486 391.085 43.6065 390.159 42.0668 390.159C40.0497 390.159 38.4645 391.739 38.4645 394.648C38.4645 397.523 40.0043 399.153 42.0611 399.153ZM42.6349 397.466C41.277 397.466 40.5611 396.273 40.5611 394.636C40.5611 393.011 41.2656 391.847 42.6349 391.847C43.9588 391.847 44.6861 392.943 44.6861 394.636C44.6861 396.33 43.9474 397.466 42.6349 397.466ZM51.4119 399.176C52.7812 399.176 53.5994 398.534 53.9744 397.801H54.0426V399H56.0199V393.159C56.0199 390.852 54.1392 390.159 52.4744 390.159C50.6392 390.159 49.2301 390.977 48.7756 392.568L50.696 392.841C50.9006 392.244 51.4801 391.733 52.4858 391.733C53.4403 391.733 53.9631 392.222 53.9631 393.08V393.114C53.9631 393.705 53.3438 393.733 51.804 393.898C50.1108 394.08 48.4915 394.585 48.4915 396.551C48.4915 398.267 49.7472 399.176 51.4119 399.176ZM51.946 397.665C51.0881 397.665 50.4744 397.273 50.4744 396.517C50.4744 395.727 51.1619 395.398 52.0824 395.267C52.6222 395.193 53.7017 395.057 53.9688 394.841V395.869C53.9688 396.841 53.1847 397.665 51.946 397.665ZM61.8949 399.17C64.4517 399.17 66.0767 397.369 66.0767 394.67C66.0767 391.966 64.4517 390.159 61.8949 390.159C59.3381 390.159 57.7131 391.966 57.7131 394.67C57.7131 397.369 59.3381 399.17 61.8949 399.17ZM61.9062 397.523C60.4915 397.523 59.7983 396.261 59.7983 394.665C59.7983 393.068 60.4915 391.79 61.9062 391.79C63.2983 391.79 63.9915 393.068 63.9915 394.665C63.9915 396.261 63.2983 397.523 61.9062 397.523Z" fill="url(#paint2_linear_958_20975)"/>
</g>
<g filter="url(#filter5_ii_958_20975)">
<path d="M18.642 33L19.6023 30.1307H23.9773L24.9432 33H27.1932L23.0909 21.3636H20.4886L16.392 33H18.642ZM20.1705 28.4375L21.7443 23.75H21.8352L23.4091 28.4375H20.1705ZM28.6122 33H36.5895V31.2386H31.5213V31.1591L33.527 29.1193C35.7884 26.9489 36.4134 25.892 36.4134 24.5795C36.4134 22.6307 34.8281 21.2045 32.4872 21.2045C30.1804 21.2045 28.544 22.6364 28.544 24.8466H30.5497C30.5497 23.6591 31.2997 22.9148 32.4588 22.9148C33.5668 22.9148 34.3906 23.5909 34.3906 24.6875C34.3906 25.6591 33.7997 26.3523 32.652 27.517L28.6122 31.4773V33ZM42.5952 33.1591C45.0554 33.1591 46.7713 31.4886 46.7713 29.1761C46.7713 26.9375 45.2145 25.3239 43.1009 25.3239C42.1577 25.3239 41.3224 25.6989 40.8906 26.2102H40.8224L41.1577 23.125H46.1634V21.3636H39.4134L38.8054 27.3636L40.7088 27.6761C41.1009 27.2443 41.8395 26.9545 42.5384 26.9602C43.8168 26.9659 44.7372 27.9091 44.7315 29.2273C44.7372 30.5284 43.8395 31.4545 42.5952 31.4545C41.544 31.4545 40.6974 30.7898 40.6236 29.8352H38.5781C38.6349 31.767 40.3224 33.1591 42.5952 33.1591ZM49.1009 33H51.2884L56.2315 23.1648V21.3636H48.3054V23.125H54.0497V23.2045L49.1009 33Z" fill="url(#paint3_linear_958_20975)"/>
</g>
<g filter="url(#filter6_ii_958_20975)">
<path d="M190.616 399.159C193.105 399.159 194.918 397.733 194.912 395.767C194.918 394.312 194.009 393.267 192.378 393.034V392.943C193.639 392.67 194.486 391.733 194.48 390.426C194.486 388.653 192.974 387.205 190.651 387.205C188.389 387.205 186.639 388.551 186.594 390.5H188.622C188.656 389.523 189.565 388.915 190.639 388.915C191.724 388.915 192.446 389.574 192.44 390.551C192.446 391.568 191.605 392.244 190.401 392.244H189.372V393.869H190.401C191.872 393.869 192.747 394.608 192.741 395.659C192.747 396.688 191.855 397.392 190.611 397.392C189.44 397.392 188.537 396.784 188.486 395.835H186.349C186.406 397.801 188.162 399.159 190.616 399.159ZM201.595 387.364H199.589L196.697 389.222V391.153L199.419 389.415H199.487V399H201.595V387.364ZM210.126 399L211.087 396.131H215.462L216.428 399H218.678L214.575 387.364H211.973L207.876 399H210.126ZM211.655 394.438L213.229 389.75H213.32L214.893 394.438H211.655ZM225.682 395.33C225.682 396.659 224.733 397.318 223.824 397.318C222.835 397.318 222.176 396.619 222.176 395.511V390.273H220.119V395.83C220.119 397.926 221.312 399.114 223.028 399.114C224.335 399.114 225.256 398.426 225.653 397.449H225.744V399H227.739V390.273H225.682V395.33ZM233.649 402.455C236.007 402.455 237.746 401.375 237.746 399.142V390.273H235.717V391.716H235.604C235.291 391.085 234.638 390.159 233.098 390.159C231.081 390.159 229.496 391.739 229.496 394.608C229.496 397.455 231.081 398.875 233.092 398.875C234.587 398.875 235.286 398.074 235.604 397.432H235.706V399.085C235.706 400.369 234.854 400.898 233.683 400.898C232.445 400.898 231.899 400.312 231.649 399.801L229.797 400.25C230.172 401.472 231.428 402.455 233.649 402.455ZM233.666 397.261C232.308 397.261 231.592 396.205 231.592 394.597C231.592 393.011 232.297 391.847 233.666 391.847C234.99 391.847 235.717 392.943 235.717 394.597C235.717 396.261 234.979 397.261 233.666 397.261ZM243.8 399H251.777V397.239H246.709V397.159L248.714 395.119C250.976 392.949 251.601 391.892 251.601 390.58C251.601 388.631 250.016 387.205 247.675 387.205C245.368 387.205 243.732 388.636 243.732 390.847H245.737C245.737 389.659 246.487 388.915 247.646 388.915C248.754 388.915 249.578 389.591 249.578 390.688C249.578 391.659 248.987 392.352 247.839 393.517L243.8 397.477V399ZM258.038 399.222C260.845 399.227 262.521 397.011 262.521 393.193C262.521 389.398 260.834 387.205 258.038 387.205C255.243 387.205 253.561 389.392 253.555 393.193C253.555 397.006 255.232 399.222 258.038 399.222ZM258.038 397.443C256.589 397.443 255.68 395.989 255.686 393.193C255.692 390.42 256.595 388.96 258.038 388.96C259.487 388.96 260.391 390.42 260.396 393.193C260.396 395.989 259.493 397.443 258.038 397.443ZM264.409 399H272.386V397.239H267.318V397.159L269.324 395.119C271.585 392.949 272.21 391.892 272.21 390.58C272.21 388.631 270.625 387.205 268.284 387.205C265.977 387.205 264.341 388.636 264.341 390.847H266.347C266.347 389.659 267.097 388.915 268.256 388.915C269.364 388.915 270.188 389.591 270.188 390.688C270.188 391.659 269.597 392.352 268.449 393.517L264.409 397.477V399ZM279.08 387.364H277.074L274.182 389.222V391.153L276.903 389.415H276.972V399H279.08V387.364Z" fill="url(#paint4_linear_958_20975)"/>
</g>
<g filter="url(#filter7_ii_958_20975)">
<path d="M196.663 33.2216C199.47 33.2273 201.146 31.0114 201.146 27.1932C201.146 23.3977 199.459 21.2045 196.663 21.2045C193.868 21.2045 192.186 23.392 192.18 27.1932C192.18 31.0057 193.857 33.2216 196.663 33.2216ZM196.663 31.4432C195.214 31.4432 194.305 29.9886 194.311 27.1932C194.317 24.4205 195.22 22.9602 196.663 22.9602C198.112 22.9602 199.016 24.4205 199.021 27.1932C199.021 29.9886 198.118 31.4432 196.663 31.4432ZM210.074 31.2273L211.352 29.9489L208.665 27.2614L211.352 24.5739L210.074 23.2841L207.381 25.9773L204.693 23.2841L203.409 24.5739L206.097 27.2614L203.409 29.9489L204.693 31.2273L207.381 28.5398L210.074 31.2273ZM213.8 33H221.777V31.2386H216.709V31.1591L218.714 29.1193C220.976 26.9489 221.601 25.892 221.601 24.5795C221.601 22.6307 220.016 21.2045 217.675 21.2045C215.368 21.2045 213.732 22.6364 213.732 24.8466H215.737C215.737 23.6591 216.487 22.9148 217.646 22.9148C218.754 22.9148 219.578 23.5909 219.578 24.6875C219.578 25.6591 218.987 26.3523 217.839 27.517L213.8 31.4773V33ZM227.624 33.1705C229.658 33.1705 231.055 32.1761 231.419 30.6591L229.499 30.4432C229.22 31.1818 228.538 31.5682 227.652 31.5682C226.322 31.5682 225.442 30.6932 225.425 29.1989H231.504V28.5682C231.504 25.5057 229.663 24.1591 227.516 24.1591C225.016 24.1591 223.385 25.9943 223.385 28.6875C223.385 31.4261 224.993 33.1705 227.624 33.1705ZM225.43 27.8125C225.493 26.6989 226.317 25.7614 227.544 25.7614C228.726 25.7614 229.521 26.625 229.533 27.8125H225.43ZM234.545 33.125C235.216 33.125 235.79 32.5682 235.795 31.875C235.79 31.1932 235.216 30.6364 234.545 30.6364C233.852 30.6364 233.29 31.1932 233.295 31.875C233.29 32.5682 233.852 33.125 234.545 33.125ZM238.676 33.125C239.347 33.125 239.92 32.5682 239.926 31.875C239.92 31.1932 239.347 30.6364 238.676 30.6364C237.983 30.6364 237.42 31.1932 237.426 31.875C237.42 32.5682 237.983 33.125 238.676 33.125ZM242.801 33.125C243.472 33.125 244.045 32.5682 244.051 31.875C244.045 31.1932 243.472 30.6364 242.801 30.6364C242.108 30.6364 241.545 31.1932 241.551 31.875C241.545 32.5682 242.108 33.125 242.801 33.125ZM250.555 24.2727H248.743V23.5852C248.743 22.9034 249.027 22.5227 249.794 22.5227C250.118 22.5227 250.391 22.5966 250.561 22.6477L250.976 21.0568C250.709 20.9659 250.124 20.8182 249.413 20.8182C247.896 20.8182 246.686 21.6875 246.686 23.4489V24.2727H245.396V25.8636H246.686V33H248.743V25.8636H250.555V24.2727ZM256.183 21.2045C253.661 21.1875 251.984 22.9205 251.984 25.1932C251.99 27.3864 253.553 28.9716 255.592 28.9716C256.848 28.9716 257.939 28.3636 258.501 27.3636H258.581C258.575 29.8523 257.672 31.3352 256.064 31.3352C255.058 31.3352 254.382 30.7557 254.172 29.8295H252.098C252.337 31.7557 253.859 33.1591 256.064 33.1591C258.854 33.1591 260.632 30.8295 260.626 26.8239C260.621 22.5852 258.416 21.2159 256.183 21.2045ZM256.189 22.9091C257.433 22.9091 258.348 23.9432 258.348 25.1307C258.354 26.3352 257.393 27.3693 256.166 27.3693C254.928 27.3693 254.036 26.392 254.03 25.1477C254.03 23.8977 254.956 22.9091 256.189 22.9091ZM265.053 33.1761C266.422 33.1761 267.24 32.5341 267.615 31.8011H267.683V33H269.661V27.1591C269.661 24.8523 267.78 24.1591 266.115 24.1591C264.28 24.1591 262.871 24.9773 262.416 26.5682L264.337 26.8409C264.541 26.2443 265.121 25.733 266.126 25.733C267.081 25.733 267.604 26.2216 267.604 27.0795V27.1136C267.604 27.7045 266.984 27.733 265.445 27.8977C263.751 28.0795 262.132 28.5852 262.132 30.5511C262.132 32.267 263.388 33.1761 265.053 33.1761ZM265.587 31.6648C264.729 31.6648 264.115 31.2727 264.115 30.517C264.115 29.7273 264.803 29.3977 265.723 29.267C266.263 29.1932 267.342 29.0568 267.609 28.8409V29.8693C267.609 30.8409 266.825 31.6648 265.587 31.6648ZM275.842 33.1591C278.359 33.1591 280.161 31.7727 280.166 29.8807C280.161 28.4261 279.087 27.2102 277.734 26.983V26.9034C278.911 26.642 279.729 25.5852 279.734 24.3239C279.729 22.5341 278.081 21.2045 275.842 21.2045C273.587 21.2045 271.939 22.5284 271.945 24.3239C271.939 25.5852 272.746 26.642 273.945 26.9034V26.983C272.57 27.2102 271.507 28.4261 271.513 29.8807C271.507 31.7727 273.303 33.1591 275.842 33.1591ZM275.842 31.5341C274.524 31.5341 273.672 30.8068 273.683 29.733C273.672 28.6193 274.587 27.8295 275.842 27.8295C277.081 27.8295 277.99 28.625 278.001 29.733C277.99 30.8068 277.143 31.5341 275.842 31.5341ZM275.842 26.233C274.763 26.233 273.99 25.5341 274.001 24.5227C273.99 23.5227 274.74 22.8523 275.842 22.8523C276.928 22.8523 277.672 23.5227 277.683 24.5227C277.672 25.5398 276.905 26.233 275.842 26.233Z" fill="url(#paint5_linear_958_20975)"/>
</g>
</g>
</g>
<defs>
<filter id="filter0_i_958_20975" x="0" y="-2" width="297" height="422" filterUnits="userSpaceOnUse" color-interpolation-filters="sRGB">
<feFlood flood-opacity="0" result="BackgroundImageFix"/>
<feBlend mode="normal" in="SourceGraphic" in2="BackgroundImageFix" result="shape"/>
<feColorMatrix in="SourceAlpha" type="matrix" values="0 0 0 0 0 0 0 0 0 0 0 0 0 0 0 0 0 0 127 0" result="hardAlpha"/>
<feOffset dy="-2"/>
<feGaussianBlur stdDeviation="2"/>
<feComposite in2="hardAlpha" operator="arithmetic" k2="-1" k3="1"/>
<feColorMatrix type="matrix" values="0 0 0 0 0 0 0 0 0 0 0 0 0 0 0 0 0 0 0.25 0"/>
<feBlend mode="normal" in2="shape" result="effect1_innerShadow_958_20975"/>
</filter>
<filter id="filter1_f_958_20975" x="-311.568" y="-252.184" width="920.136" height="924.367" filterUnits="userSpaceOnUse" color-interpolation-filters="sRGB">
<feFlood flood-opacity="0" result="BackgroundImageFix"/>
<feBlend mode="normal" in="SourceGraphic" in2="BackgroundImageFix" result="shape"/>
<feGaussianBlur stdDeviation="34" result="effect1_foregroundBlur_958_20975"/>
</filter>
<pattern id="pattern0" patternContentUnits="objectBoundingBox" width="1" height="1">
<use xlink:href="#image0_958_20975" transform="translate(0 -0.0221978) scale(0.00307692 0.00217582)"/>
</pattern>
<pattern id="pattern1" patternContentUnits="objectBoundingBox" width="1" height="1">
<use xlink:href="#image1_958_20975" transform="translate(-0.000909091) scale(0.00078267)"/>
</pattern>
<filter id="filter2_f_958_20975" x="-42" y="-46" width="380" height="336" filterUnits="userSpaceOnUse" color-interpolation-filters="sRGB">
<feFlood flood-opacity="0" result="BackgroundImageFix"/>
<feBlend mode="normal" in="SourceGraphic" in2="BackgroundImageFix" result="shape"/>
<feGaussianBlur stdDeviation="2" result="effect1_foregroundBlur_958_20975"/>
</filter>
<filter id="filter3_f_958_20975" x="-98" y="-211.408" width="475.566" height="854.058" filterUnits="userSpaceOnUse" color-interpolation-filters="sRGB">
<feFlood flood-opacity="0" result="BackgroundImageFix"/>
<feBlend mode="normal" in="SourceGraphic" in2="BackgroundImageFix" result="shape"/>
<feGaussianBlur stdDeviation="10" result="effect1_foregroundBlur_958_20975"/>
</filter>
<pattern id="pattern2" patternContentUnits="objectBoundingBox" width="1" height="1">
<use xlink:href="#image2_958_20975" transform="scale(0.0025)"/>
</pattern>
<filter id="filter4_ii_958_20975" x="17.1477" y="387.364" width="48.929" height="11.8125" filterUnits="userSpaceOnUse" color-interpolation-filters="sRGB">
<feFlood flood-opacity="0" result="BackgroundImageFix"/>
<feBlend mode="normal" in="SourceGraphic" in2="BackgroundImageFix" result="shape"/>
<feColorMatrix in="SourceAlpha" type="matrix" values="0 0 0 0 0 0 0 0 0 0 0 0 0 0 0 0 0 0 127 0" result="hardAlpha"/>
<feOffset dx="-0.25" dy="0.25"/>
<feComposite in2="hardAlpha" operator="arithmetic" k2="-1" k3="1"/>
<feColorMatrix type="matrix" values="0 0 0 0 0 0 0 0 0 0 0 0 0 0 0 0 0 0 0.25 0"/>
<feBlend mode="normal" in2="shape" result="effect1_innerShadow_958_20975"/>
<feColorMatrix in="SourceAlpha" type="matrix" values="0 0 0 0 0 0 0 0 0 0 0 0 0 0 0 0 0 0 127 0" result="hardAlpha"/>
<feOffset dy="-0.25"/>
<feComposite in2="hardAlpha" operator="arithmetic" k2="-1" k3="1"/>
<feColorMatrix type="matrix" values="0 0 0 0 1 0 0 0 0 1 0 0 0 0 1 0 0 0 1 0"/>
<feBlend mode="normal" in2="effect1_innerShadow_958_20975" result="effect2_innerShadow_958_20975"/>
</filter>
<filter id="filter5_ii_958_20975" x="16.3921" y="21.2045" width="39.8395" height="11.9545" filterUnits="userSpaceOnUse" color-interpolation-filters="sRGB">
<feFlood flood-opacity="0" result="BackgroundImageFix"/>
<feBlend mode="normal" in="SourceGraphic" in2="BackgroundImageFix" result="shape"/>
<feColorMatrix in="SourceAlpha" type="matrix" values="0 0 0 0 0 0 0 0 0 0 0 0 0 0 0 0 0 0 127 0" result="hardAlpha"/>
<feOffset dx="-0.25" dy="0.25"/>
<feComposite in2="hardAlpha" operator="arithmetic" k2="-1" k3="1"/>
<feColorMatrix type="matrix" values="0 0 0 0 0 0 0 0 0 0 0 0 0 0 0 0 0 0 0.25 0"/>
<feBlend mode="normal" in2="shape" result="effect1_innerShadow_958_20975"/>
<feColorMatrix in="SourceAlpha" type="matrix" values="0 0 0 0 0 0 0 0 0 0 0 0 0 0 0 0 0 0 127 0" result="hardAlpha"/>
<feOffset dy="-0.25"/>
<feComposite in2="hardAlpha" operator="arithmetic" k2="-1" k3="1"/>
<feColorMatrix type="matrix" values="0 0 0 0 1 0 0 0 0 1 0 0 0 0 1 0 0 0 1 0"/>
<feBlend mode="normal" in2="effect1_innerShadow_958_20975" result="effect2_innerShadow_958_20975"/>
</filter>
<filter id="filter6_ii_958_20975" x="186.349" y="387.205" width="92.7301" height="15.25" filterUnits="userSpaceOnUse" color-interpolation-filters="sRGB">
<feFlood flood-opacity="0" result="BackgroundImageFix"/>
<feBlend mode="normal" in="SourceGraphic" in2="BackgroundImageFix" result="shape"/>
<feColorMatrix in="SourceAlpha" type="matrix" values="0 0 0 0 0 0 0 0 0 0 0 0 0 0 0 0 0 0 127 0" result="hardAlpha"/>
<feOffset dx="-0.25" dy="0.25"/>
<feComposite in2="hardAlpha" operator="arithmetic" k2="-1" k3="1"/>
<feColorMatrix type="matrix" values="0 0 0 0 0 0 0 0 0 0 0 0 0 0 0 0 0 0 0.25 0"/>
<feBlend mode="normal" in2="shape" result="effect1_innerShadow_958_20975"/>
<feColorMatrix in="SourceAlpha" type="matrix" values="0 0 0 0 0 0 0 0 0 0 0 0 0 0 0 0 0 0 127 0" result="hardAlpha"/>
<feOffset dy="-0.25"/>
<feComposite in2="hardAlpha" operator="arithmetic" k2="-1" k3="1"/>
<feColorMatrix type="matrix" values="0 0 0 0 1 0 0 0 0 1 0 0 0 0 1 0 0 0 1 0"/>
<feBlend mode="normal" in2="effect1_innerShadow_958_20975" result="effect2_innerShadow_958_20975"/>
</filter>
<filter id="filter7_ii_958_20975" x="192.18" y="20.8182" width="87.9857" height="12.4091" filterUnits="userSpaceOnUse" color-interpolation-filters="sRGB">
<feFlood flood-opacity="0" result="BackgroundImageFix"/>
<feBlend mode="normal" in="SourceGraphic" in2="BackgroundImageFix" result="shape"/>
<feColorMatrix in="SourceAlpha" type="matrix" values="0 0 0 0 0 0 0 0 0 0 0 0 0 0 0 0 0 0 127 0" result="hardAlpha"/>
<feOffset dx="-0.25" dy="0.25"/>
<feComposite in2="hardAlpha" operator="arithmetic" k2="-1" k3="1"/>
<feColorMatrix type="matrix" values="0 0 0 0 0 0 0 0 0 0 0 0 0 0 0 0 0 0 0.25 0"/>
<feBlend mode="normal" in2="shape" result="effect1_innerShadow_958_20975"/>
<feColorMatrix in="SourceAlpha" type="matrix" values="0 0 0 0 0 0 0 0 0 0 0 0 0 0 0 0 0 0 127 0" result="hardAlpha"/>
<feOffset dy="-0.25"/>
<feComposite in2="hardAlpha" operator="arithmetic" k2="-1" k3="1"/>
<feColorMatrix type="matrix" values="0 0 0 0 1 0 0 0 0 1 0 0 0 0 1 0 0 0 1 0"/>
<feBlend mode="normal" in2="effect1_innerShadow_958_20975" result="effect2_innerShadow_958_20975"/>
</filter>
<linearGradient id="paint0_linear_958_20975" x1="288" y1="77.5" x2="65.5" y2="215.5" gradientUnits="userSpaceOnUse">
<stop stop-color="white"/>
<stop offset="1" stop-color="white" stop-opacity="0"/>
</linearGradient>
<radialGradient id="paint1_radial_958_20975" cx="0" cy="0" r="1" gradientUnits="userSpaceOnUse" gradientTransform="translate(274.51 274.51) rotate(90) scale(274.51)">
<stop offset="0.707462" stop-opacity="0"/>
<stop offset="1"/>
</radialGradient>
<linearGradient id="paint2_linear_958_20975" x1="41.5" y1="382" x2="19.0977" y2="386.531" gradientUnits="userSpaceOnUse">
<stop stop-color="#080D83" stop-opacity="0.3"/>
<stop offset="1" stop-color="#051254" stop-opacity="0.22"/>
</linearGradient>
<linearGradient id="paint3_linear_958_20975" x1="37" y1="16" x2="18.3148" y2="19.1121" gradientUnits="userSpaceOnUse">
<stop stop-color="#080D83" stop-opacity="0.3"/>
<stop offset="1" stop-color="#051254" stop-opacity="0.22"/>
</linearGradient>
<linearGradient id="paint4_linear_958_20975" x1="233" y1="382" x2="194.662" y2="396.595" gradientUnits="userSpaceOnUse">
<stop stop-color="#080D83" stop-opacity="0.3"/>
<stop offset="1" stop-color="#051254" stop-opacity="0.22"/>
</linearGradient>
<linearGradient id="paint5_linear_958_20975" x1="236" y1="16" x2="199.499" y2="29.0274" gradientUnits="userSpaceOnUse">
<stop stop-color="#080D83" stop-opacity="0.3"/>
<stop offset="1" stop-color="#051254" stop-opacity="0.22"/>
</linearGradient>
<clipPath id="clip0_958_20975">
<rect width="297" height="420" rx="16" fill="white"/>
</clipPath>
<image id="image0_958_20975" width="325" height="480" href="https://cloudflare-ipfs.com/ipfs/QmcjdWo3oDYPGdLCdmEpGGpFsFKbfXwCLc5kdTJj9seuLx"/>
</defs>
</svg>